Coordinates
version=1
nRows=7
nColumns=40
inDegrees=yes

Units are S.I. units (second, meters, Newtons, ...)
Angles are in degrees.

endheader
time	pelvis_tilt	pelvis_list	pelvis_rotation	pelvis_tx	pelvis_ty	pelvis_tz	hip_flexion_r	hip_adduction_r	hip_rotation_r	knee_angle_r	knee_angle_r_beta	ankle_angle_r	subtalar_angle_r	mtp_angle_r	hip_flexion_l	hip_adduction_l	hip_rotation_l	knee_angle_l	knee_angle_l_beta	ankle_angle_l	subtalar_angle_l	mtp_angle_l	lumbar_extension	lumbar_bending	lumbar_rotation	arm_flex_r	arm_add_r	arm_rot_r	elbow_flex_r	pro_sup_r	wrist_flex_r	wrist_dev_r	arm_flex_l	arm_add_l	arm_rot_l	elbow_flex_l	pro_sup_l	wrist_flex_l	wrist_dev_l
      0.22000000	    -11.67153554	      3.54641711	     -8.23313934	     -0.82849567	      0.87320601	     -0.39590068	    -10.00765521	     -4.83266381	      3.04028413	    -51.43803425	     -0.89776306	    -28.14622446	    -12.15794116	     21.15604553	     56.70607479	      5.86500404	     13.59008102	    -33.96138014	     -0.59273790	    -21.71240362	     17.94364193	     24.15752520	     -4.79543536	     -7.43736743	     17.18064440	     -3.62851816	    -15.40002203	     22.02969369	    118.86559792	     89.95437384	      0.00000000	      0.00000000	    -32.96104560	     30.91205560	     16.94637852	     80.72594908	     89.95437384	      0.00000000	      0.00000000
      0.23000000	    -10.81276203	      2.59055145	     -6.73022467	     -0.77856637	      0.87110014	     -0.39874541	     -8.95296594	     -3.46086241	      1.38241799	    -57.57074739	     -1.00479909	    -27.41151379	    -12.62539832	     20.68207586	     54.14996979	      5.18360764	     13.18920605	    -33.89609137	     -0.59159840	    -22.36273099	     16.69672227	     23.62843194	     -5.58096669	     -6.70740145	     14.71367506	     -5.75650996	    -15.77537064	     21.11238072	    115.84379027	     89.95437384	      0.00000000	      0.00000000	    -30.30919486	     30.62576784	     15.89771956	     80.55663324	     89.95437384	      0.00000000	      0.00000000
      0.24000000	    -10.20515782	      1.77746740	     -5.06271993	     -0.72922838	      0.86753467	     -0.40167230	     -7.23903152	     -2.32376803	     -0.61955857	    -63.83993884	     -1.11421713	    -25.96017069	    -12.96052513	     19.99584450	     51.92698804	      4.33032920	     12.24651390	    -34.77399431	     -0.60692069	    -23.17698135	     15.71866322	     22.96306678	     -6.05079250	     -6.10540283	     12.05901067	     -8.10624307	    -15.97737826	     19.83880492	    112.62364565	     89.95437384	      0.00000000	      0.00000000	    -27.44750167	     30.53858374	     14.66108329	     80.55981216	     89.95437384	      0.00000000	      0.00000000
      0.25000000	     -9.40975087	      1.15587859	     -3.48330673	     -0.68072444	      0.86345885	     -0.40476445	     -5.33583773	     -1.54565313	     -2.53297240	    -69.97100275	     -1.22122438	    -24.97245619	    -13.61991107	     19.39966643	     49.44279932	      3.23320033	     10.65050415	    -36.36632990	     -0.63471219	    -19.99132203	     14.81744368	     21.93354223	     -6.79131515	     -5.72494727	      9.30383410	    -10.11841930	    -16.34179311	     18.50283473	    109.10024309	     89.95437384	      0.00000000	      0.00000000	    -24.35638725	     30.15352782	     13.83466468	     80.86225049	     89.95437384	      0.00000000	      0.00000000
      0.26000000	     -8.71566378	      0.92349154	     -1.89085920	     -0.63325207	      0.85842011	     -0.40849191	     -2.73026148	     -1.48819836	     -4.48569335	    -76.33811000	     -1.33235136	    -23.42154147	    -14.70193429	     18.72447197	     46.59257146	      1.29411749	      7.77387485	    -38.47412999	     -0.67150025	    -11.24258594	     13.24205346	     20.15496647	     -7.50988082	     -5.69508189	      6.42442374	    -12.03649406	    -16.77418586	     17.09508630	    105.44603703	     89.95437384	      0.00000000	      0.00000000	    -21.03548437	     29.72273675	     12.98307408	     81.38803022	     89.95437384	      0.00000000	      0.00000000
      0.27000000	     -8.01518622	      0.93579515	     -0.17622655	     -0.58646211	      0.85286098	     -0.41232831	      0.24660165	     -1.77143455	     -6.26814638	    -82.46278088	     -1.43924704	    -22.06670459	    -15.37623299	     17.97015571	     44.39834410	     -0.34833549	      6.67433113	    -43.06344221	     -0.75159885	     -2.83571202	     12.22724018	     18.05010906	     -8.36224994	     -5.93301026	      3.35172896	    -13.80391355	    -16.94277199	     15.38204876	    101.45144171	     89.95437384	      0.00000000	      0.00000000	    -17.43477083	     29.41178947	     12.10986917	     82.07495397	     89.95437384	      0.00000000	      0.00000000
      0.28000000	     -7.16366458	      0.88219199	      1.11026520	     -0.54093993	      0.84728157	     -0.41529916	      3.71271056	     -1.92336930	     -7.27131322	    -88.43441791	     -1.54347176	    -20.12552291	    -16.08053203	     17.08512579	     41.85083705	     -1.50351616	      5.81028038	    -46.79781675	     -0.81677598	      4.54490319	     12.46617628	     16.10560909	     -9.61543273	     -6.10897894	      0.73090507	    -15.39660642	    -17.16211162	     13.45491645	     97.31505348	     89.95437384	      0.00000000	      0.00000000	    -13.36956864	     29.04992669	     11.08604892	     82.90775223	     89.95437384	      0.00000000	      0.00000000
